<svg width="20" height="22" viewBox="0 0 20 22" xmlns="http://www.w3.org/2000/svg">
<path fill-rule="evenodd" clip-rule="evenodd" d="M10 0.25C10.4142 0.25 10.75 0.585786 10.75 1V3C10.75 3.41421 10.4142 3.75 10 3.75C9.58579 3.75 9.25 3.41421 9.25 3V1C9.25 0.585786 9.58579 0.25 10 0.25ZM10 18.25C10.4142 18.25 10.75 18.5858 10.75 19V21C10.75 21.4142 10.4142 21.75 10 21.75C9.58579 21.75 9.25 21.4142 9.25 21V19C9.25 18.5858 9.58579 18.25 10 18.25ZM10 6.75C7.65279 6.75 5.75 8.65279 5.75 11C5.75 13.3472 7.65279 15.25 10 15.25C12.3472 15.25 14.25 13.3472 14.25 11C14.25 8.65279 12.3472 6.75 10 6.75ZM4.25 11C4.25 7.82436 6.82436 5.25 10 5.25C13.1756 5.25 15.75 7.82436 15.75 11C15.75 14.1756 13.1756 16.75 10 16.75C6.82436 16.75 4.25 14.1756 4.25 11ZM1 10.25C0.585786 10.25 0.25 10.5858 0.25 11C0.25 11.4142 0.585786 11.75 1 11.75H2.8C3.21421 11.75 3.55 11.4142 3.55 11C3.55 10.5858 3.21421 10.25 2.8 10.25H1ZM17.2 10.25C16.7858 10.25 16.45 10.5858 16.45 11C16.45 11.4142 16.7858 11.75 17.2 11.75H19C19.4142 11.75 19.75 11.4142 19.75 11C19.75 10.5858 19.4142 10.25 19 10.25H17.2ZM2.71967 3.71921C3.01257 3.42631 3.48744 3.42632 3.78033 3.71921L5.13035 5.06926C5.42325 5.36215 5.42324 5.83702 5.13035 6.12992C4.83745 6.42281 4.36258 6.4228 4.06969 6.12991L2.71967 4.77987C2.42677 4.48697 2.42678 4.0121 2.71967 3.71921ZM14.8697 15.8692C15.1626 15.5763 15.6374 15.5763 15.9303 15.8692L17.2803 17.2192C17.5732 17.5121 17.5732 17.987 17.2803 18.2799C16.9874 18.5728 16.5126 18.5728 16.2197 18.2799L14.8697 16.9299C14.5768 16.637 14.5768 16.1621 14.8697 15.8692ZM2.71967 17.2197C2.42678 17.5126 2.42678 17.9874 2.71967 18.2803C3.01256 18.5732 3.48744 18.5732 3.78033 18.2803L5.13033 16.9303C5.42322 16.6374 5.42322 16.1626 5.13033 15.8697C4.83744 15.5768 4.36256 15.5768 4.06967 15.8697L2.71967 17.2197ZM14.8697 5.06967C14.5768 5.36256 14.5768 5.83744 14.8697 6.13033C15.1626 6.42322 15.6374 6.42322 15.9303 6.13033L17.2803 4.78033C17.5732 4.48744 17.5732 4.01256 17.2803 3.71967C16.9874 3.42678 16.5126 3.42678 16.2197 3.71967L14.8697 5.06967Z" />
</svg>
